<svg width="140" height="140" viewBox="0 0 140 140" fill="none" xmlns="http://www.w3.org/2000/svg">
<path d="M111.344 50.8299C112.151 50.6147 113.308 50.6416 114.814 50.9106C116.32 51.1795 117.584 51.6098 118.606 52.2015C119.413 52.6318 120.005 53.0621 120.382 53.4924C120.812 53.9227 121.108 54.5413 121.269 55.3481C121.861 57.3921 122.479 60.727 123.125 65.3528C123.771 69.9786 124.228 74.2548 124.497 78.1814C124.658 82.0004 125.008 85.1739 125.546 87.702C126.299 91.3596 126.433 95.7972 125.949 101.015C125.519 106.232 124.712 109.298 123.528 110.213C122.722 110.75 121.511 111.799 119.897 113.359C118.284 114.811 116.831 115.645 115.54 115.86C114.303 116.129 112.743 115.887 110.86 115.134C108.87 114.327 107.686 113.763 107.31 113.44C106.933 113.117 106.18 112.956 105.05 112.956C104.082 112.956 102.253 113.198 99.5634 113.682C96.9275 114.166 95.0716 114.65 93.9957 115.134C93.404 115.349 92.9199 115.376 92.5433 115.215C92.1668 115.053 91.5481 114.65 90.6874 114.005C89.3964 112.821 88.7509 111.692 88.7509 110.616V110.616C88.7509 109.779 89.393 109.185 90.22 109.315C90.2411 109.318 90.2624 109.321 90.284 109.325C90.9295 109.486 91.5481 109.406 92.1399 109.083C92.7316 108.706 93.673 107.873 94.964 106.582C97.062 104.538 98.3261 103.139 98.7565 102.386C98.8128 102.274 98.8609 102.17 98.9007 102.077C99.08 101.654 98.957 101.305 98.5137 101.423V101.423C98.3056 101.479 97.9244 101.603 97.7116 101.637C96.7937 101.781 96.093 101.708 95.6096 101.418C95.0716 101.095 94.6413 100.369 94.3185 99.2396C93.8882 97.7336 93.7268 96.7923 93.8344 96.4157C93.9419 95.9854 94.4261 95.6358 95.2868 95.3669C95.7709 95.2055 96.2551 94.9097 96.7392 94.4793C97.2772 93.9952 97.6806 93.538 97.9496 93.1077V93.1077C98.2636 92.6053 97.7639 92.1238 97.2091 91.9155C96.8483 91.7801 96.3688 91.6127 95.7709 91.4134C94.8564 91.1445 94.1571 91.0638 93.673 91.1713C93.2426 91.2789 92.3281 91.7899 90.9295 92.7043C89.0467 94.049 87.3791 94.7214 85.9267 94.7214C84.5281 94.7214 83.7212 94.8828 83.506 95.2055C83.0218 95.9585 82.6991 97.5453 82.5377 99.9658C82.3763 102.386 82.4301 104.672 82.6991 106.824C83.0756 109.997 82.9949 111.826 82.457 112.31C81.2736 113.494 80.1439 112.687 79.068 109.89C78.6377 108.706 78.3956 107.496 78.3418 106.259C78.3418 105.022 78.5032 102.225 78.8259 97.868C79.2563 91.521 79.2832 85.1201 78.9066 78.6655C78.7509 75.5516 78.6453 73.1826 78.5897 71.5584C78.5294 69.7955 79.4312 69.1733 80.9239 70.1131V70.1131C82.3763 70.9737 83.237 71.915 83.506 72.937C83.775 73.959 83.8287 75.9761 83.6674 78.9882C83.3984 81.6777 83.3715 83.883 83.5867 85.6042C83.8019 87.2717 84.1515 88.1054 84.6357 88.1054C85.066 88.1054 86.0881 87.4868 87.7019 86.2497C89.3157 85.0126 91.2792 83.7216 93.5923 82.3769C94.9909 81.4625 95.9861 80.7095 96.5778 80.1178C97.1696 79.4723 97.7613 78.4772 98.353 77.1325C99.4289 75.0348 100.048 73.3135 100.209 71.9688C100.37 71.0544 100.397 70.4627 100.29 70.1938C100.182 69.9248 99.913 69.7904 99.4827 69.7904C98.891 69.8442 97.8689 70.3821 96.4165 71.404C94.964 72.426 93.942 73.3404 93.3502 74.1473C92.7047 75.1692 92.0323 75.5458 91.333 75.2768C91.064 75.1692 90.9295 74.9272 90.9295 74.5507C90.9295 74.1204 91.9516 72.2378 93.9957 68.9029C96.0399 65.5142 97.062 63.6316 97.062 63.2551C97.062 62.8785 96.0937 62.771 94.1571 62.9323C92.9737 63.1475 92.113 63.2013 91.575 63.0937C91.0371 62.9861 90.4723 62.6903 89.8805 62.2062C89.0736 61.5069 88.8047 61.0766 89.0736 60.9153C89.3426 60.7001 90.4723 60.3505 92.4626 59.8664C93.9151 59.4899 96.6316 58.0376 100.612 55.5095C104.593 52.9277 107.229 51.5292 108.52 51.314C109.865 51.0988 110.806 50.9375 111.344 50.8299ZM113.604 54.7027C112.689 53.5731 110.752 53.5193 107.794 54.5413C104.889 55.5633 102.253 57.2038 99.8861 59.463C98.7565 60.4312 98.111 61.1035 97.9496 61.48C97.7882 61.8028 97.9227 62.1793 98.353 62.6096C98.9448 63.2551 99.2137 63.7929 99.1599 64.2233C99.1599 64.5998 98.8103 65.4335 98.111 66.7244L97.7389 67.4419C97.4338 68.0302 97.9452 68.7101 98.5951 68.5801V68.5801C100.37 68.2036 101.608 68.5263 102.307 69.5483C103.06 70.5703 103.141 72.1571 102.549 74.3086C102.172 75.6533 102.145 76.5408 102.468 76.9712C102.791 77.3477 103.786 77.6435 105.454 77.8587C106.852 78.1276 107.848 78.4772 108.439 78.9075C109.085 79.3379 109.273 79.9564 109.004 80.7633C108.735 81.5701 108.197 81.9735 107.39 81.9735C106.583 81.9735 105.346 82.35 103.679 83.1031C102.065 83.8561 101.043 84.0444 100.612 83.6678V83.6678C99.8695 83.0179 98.8051 83.6083 98.2045 84.3915C97.8964 84.7933 97.5425 85.3051 97.1427 85.927C96.9631 86.2226 96.8054 86.4924 96.6694 86.7363C96.0699 87.8111 96.7141 88.5308 97.8689 88.1054V88.1054C99.1599 87.6213 100.693 87.4599 102.468 87.6213C104.243 87.7289 105.534 88.1592 106.341 88.9122C106.557 89.0736 106.072 89.7997 104.889 91.0907C103.652 92.4892 103.06 93.5111 103.114 94.1566C103.221 94.8021 104.055 95.34 105.615 95.7703C107.283 96.3082 108.117 96.8191 108.117 97.3032C108.117 97.7873 106.422 99.7237 103.033 103.112L100.04 106.058C99.3735 106.714 99.9283 107.84 100.854 107.711V107.711C104.781 107.066 108.439 107.012 111.828 107.55V107.55C113.538 107.843 115.257 107.079 116.186 105.614V105.614C117.369 103.839 118.149 102.171 118.526 100.611C118.956 98.9976 119.171 96.7385 119.171 93.8339C119.225 91.1445 118.902 86.3842 118.203 79.553C117.557 72.6681 116.966 67.8809 116.428 65.1915C115.083 58.7906 114.141 55.2944 113.604 54.7027ZM89.7192 89.477C91.9785 87.3792 92.5971 86.4111 91.575 86.5724C90.9833 86.7338 89.8267 87.3255 88.1053 88.3474C86.7067 89.3156 86.0074 90.1225 86.0074 90.7679C86.0074 92.0051 86.7336 92.0858 88.186 91.01C88.6164 90.6335 89.1274 90.1225 89.7192 89.477Z" fill="white"/>
<path d="M55.3135 43.4057C56.6046 42.7065 57.6804 42.33 58.5411 42.2762C59.4018 42.1686 60.3701 42.33 61.446 42.7603C62.3605 43.1906 62.8177 43.8361 62.8177 44.6967C62.8177 45.5035 62.2529 47.2247 61.1232 49.8604C60.0473 52.496 58.9984 54.5669 57.9763 56.073C57.7604 56.4122 57.5755 56.716 57.4215 56.9845C56.9332 57.8357 57.165 58.7672 58.1377 58.8969V58.8969C58.837 58.9506 59.9667 59.381 61.5267 60.1878C62.8715 60.9408 63.7053 61.8283 64.0281 62.8503C64.4046 63.8723 64.2701 65.2439 63.6246 66.9651C63.0867 68.5788 62.8177 69.4932 62.8177 69.7084C62.8177 69.9235 63.9205 70.5959 66.126 71.7254C68.3316 72.8012 69.4343 73.5005 69.4343 73.8232C69.4343 74.0921 69.6495 74.2266 70.0799 74.2266C70.5102 74.2266 71.2364 74.8452 72.2585 76.0823C73.3344 77.2657 74.1682 78.4759 74.7599 79.713C75.513 81.2191 75.8627 82.3218 75.8089 83.021C75.7551 83.7203 75.2709 84.554 74.3565 85.5222C73.2268 86.6518 72.4199 87.2703 71.9357 87.3779C71.5054 87.4317 70.7792 87.0552 69.7571 86.2484C68.8964 85.6029 68.0895 85.2802 67.3364 85.2802C65.8302 85.2802 65.0771 84.312 65.0771 82.3756C65.0771 81.3536 65.4267 80.7619 66.126 80.6006C67.4171 80.2778 67.6323 79.3096 66.7716 77.696C66.126 76.5664 65.0502 75.5982 63.5439 74.7914C62.3605 74.1459 61.3115 74.0115 60.397 74.388C59.5363 74.7107 58.326 75.6251 56.7659 77.1312C55.0983 78.96 53.6459 80.0089 52.4087 80.2778C51.2252 80.5468 49.2886 80.3047 46.5989 79.5517C45.2003 79.2827 43.7748 78.4759 42.3223 77.1312C40.8699 75.7865 40.1437 74.6569 40.1437 73.7425C40.1437 72.8819 40.8161 72.1557 42.161 71.5641C43.5596 70.9724 45.9265 70.4345 49.2617 69.9504C51.6824 69.5201 53.4038 69.0629 54.4259 68.5788C55.448 68.0409 56.228 67.261 56.7659 66.239C57.4653 65.0019 57.1425 64.4909 55.7977 64.706C55.4211 64.8136 54.937 64.9481 54.3452 65.1094C52.839 65.6473 51.6824 65.8087 50.8755 65.5935C50.0686 65.3246 49.45 64.6253 49.0197 63.4958C47.9976 60.5912 48.2934 58.4128 49.9073 56.9605C50.7142 56.2074 51.4135 55.293 52.0052 54.2173C52.5969 53.1415 52.7852 52.4153 52.57 52.0388C52.3549 51.6623 51.6017 51.474 50.3107 51.474C49.0197 51.474 47.9169 50.9899 47.0024 50.0217C46.1417 49.0535 45.7113 48.435 45.7113 48.166C45.7113 47.8433 46.2224 47.6819 47.2445 47.6819C48.2665 47.6819 49.5038 47.1978 50.9562 46.2296C52.4087 45.2077 53.8611 44.2664 55.3135 43.4057Z" fill="#7088FF"/>
<path d="M68.4661 50.9899C69.6495 50.452 71.5592 50.6672 74.1951 51.6354C76.8848 52.5498 79.0096 53.76 80.5696 55.2661C81.6993 56.3957 82.3448 57.3101 82.5062 58.0093C82.6676 58.6548 82.4255 59.4078 81.78 60.2685C81.1345 61.0753 80.3544 61.3442 79.44 61.0753C78.5255 60.7526 77.1268 59.7575 75.244 58.09C73.4151 56.4764 71.613 55.1317 69.8378 54.0559C68.3854 53.1953 67.5785 52.5767 67.4171 52.2002C67.2557 51.8237 67.6054 51.4202 68.4661 50.9899Z" fill="#7088FF"/>
<path fill-rule="evenodd" clip-rule="evenodd" d="M34.4954 25.1714V25.1714C33.8153 24.8135 33.0032 25.3277 33.0359 26.0955L33.1236 28.1567C33.1774 30.631 33.1774 33.5893 33.1236 37.0318V37.0318C33.023 40.1501 31.3458 43.0039 28.6704 44.609L27.7174 45.1808C24.2746 47.2247 21.1277 48.8922 18.2766 50.1831L15.5045 51.4906C14.8075 51.8193 14.6929 52.7631 15.291 53.2491V53.2491C17.0662 54.5938 19.1642 55.2661 21.5849 55.2661C24.0594 55.2661 26.2649 54.5669 28.2015 53.1684C29.6002 52.0926 30.4877 51.5547 30.8643 51.5547C31.1871 51.5547 31.3484 51.9043 31.3484 52.6036C31.3484 53.2491 30.9181 54.6745 30.0574 56.8798C29.2505 59.0313 28.7126 60.1609 28.4436 60.2685C28.1746 60.376 28.0401 60.6181 28.0401 60.9946C28.0401 61.5325 27.287 62.9579 25.7808 65.2708C24.2746 67.5837 23.1718 69.0629 22.4725 69.7084C21.3966 70.6766 20.8318 71.4296 20.778 71.9675C20.6704 72.7743 20.8049 74.0115 21.1814 75.6789C21.6118 77.3463 22.0421 78.5028 22.4725 79.1483V79.1483C22.9494 79.7986 23.8814 79.8998 24.4868 79.3671L25.3774 78.5835V78.5835C27.0066 77.205 28.8654 77.9397 29.336 80.0213C29.4151 80.3711 29.4942 80.7524 29.5733 81.1653C29.896 82.779 30.2726 84.1506 30.7029 85.2802C31.5636 87.2703 32.4243 88.1848 33.285 88.0234C34.5761 87.7544 35.0871 85.4146 34.8181 81.004C34.603 78.4221 34.6837 75.1141 35.0602 71.08C35.3292 68.014 35.5981 66.0507 35.8671 65.1901C36.1361 64.3295 36.8892 62.931 38.1264 60.9946C39.4713 58.9506 40.6278 56.9605 41.5961 55.0241C42.5644 53.0877 42.9679 51.9043 42.8065 51.474C42.6451 51.0437 42.1072 51.4471 41.1927 52.6843C40.332 53.8676 39.4713 54.9165 38.6106 55.8309C37.8037 56.6915 37.1044 57.5521 36.5126 58.4128V58.4128C35.9056 59.3232 34.9782 59.1224 35.3195 58.0828C35.475 57.6089 35.7114 57.0196 36.0285 56.315C37.3733 53.4642 37.6423 51.3127 36.8354 49.8604C36.4588 49.2149 36.5395 48.6501 37.0775 48.166C37.6692 47.6819 39.2292 46.8751 41.7575 45.7456C44.3396 44.5084 45.6307 43.5133 45.6307 42.7603C45.6307 41.308 44.2051 40.3398 41.3541 39.8557C39.3637 39.4792 38.1802 38.9951 37.8037 38.4034C37.4809 37.8117 37.5616 36.4401 38.0458 34.2886C38.2071 33.6969 38.3954 33.2666 38.6106 32.9977C38.8258 32.7287 38.6913 31.7874 38.2071 30.1738C37.723 28.5601 37.2388 27.4843 36.7547 26.9464C36.3244 26.3548 35.5712 25.7631 34.4954 25.1714ZM29.832 75.0882C29.8896 74.7523 30.1676 74.8319 30.1775 75.1726C30.1799 75.2537 30.1776 75.3363 30.1708 75.4204C30.1421 75.7714 29.9005 75.8222 29.8491 75.4739C29.8397 75.4098 29.8309 75.34 29.8226 75.2643C29.8176 75.2183 29.8242 75.1338 29.832 75.0882V75.0882Z" fill="white"/>
<path d="M57.4079 26.0652C57.3008 25.0477 58.325 24.2887 59.2673 24.6873V24.6873C60.7198 25.279 61.8494 26.0858 62.6563 27.1078C63.517 28.1298 63.8398 29.0711 63.6246 29.9317C63.0867 32.1908 61.4191 33.3204 58.6218 33.3204C57.277 33.3204 56.497 33.1859 56.2818 32.917C56.1204 32.648 56.3894 32.0564 57.0887 31.1419C57.6266 30.3351 57.7611 28.9097 57.4922 26.8658L57.4079 26.0652Z" fill="#7088FF" fill-opacity="0.8034"/>
</svg>
