<svg width="140" height="140" viewBox="0 0 140 140" fill="none" xmlns="http://www.w3.org/2000/svg">
<path d="M111.344 50.8301C112.151 50.615 113.308 50.6419 114.814 50.9108C116.32 51.1798 117.584 51.6101 118.606 52.2018C119.413 52.6321 120.005 53.0624 120.382 53.4927C120.812 53.923 121.108 54.5416 121.269 55.3484C121.861 57.3924 122.479 60.7272 123.125 65.3531C123.771 69.9789 124.228 74.2551 124.497 78.1816C124.658 82.0006 125.008 85.1742 125.546 87.7022C126.299 91.3598 126.433 95.7974 125.949 101.015C125.519 106.232 124.712 109.298 123.528 110.213C122.722 110.751 121.511 111.8 119.897 113.359C118.284 114.812 116.831 115.645 115.54 115.861C114.303 116.13 112.743 115.887 110.86 115.134C108.87 114.328 107.686 113.763 107.31 113.44C106.933 113.117 106.18 112.956 105.05 112.956C104.082 112.956 102.253 113.198 99.5634 113.682C96.9275 114.166 95.0716 114.65 93.9957 115.134C93.404 115.35 92.9199 115.376 92.5433 115.215C92.1668 115.054 91.5481 114.65 90.6874 114.005C89.3964 112.821 88.7509 111.692 88.7509 110.616C88.7509 109.779 89.393 109.186 90.22 109.315C90.2411 109.318 90.2624 109.322 90.284 109.325C90.9295 109.487 91.5481 109.406 92.1399 109.083C92.7316 108.707 93.673 107.873 94.964 106.582C97.062 104.538 98.3261 103.14 98.7565 102.387C98.8128 102.274 98.8609 102.171 98.9007 102.077C99.08 101.655 98.957 101.305 98.5137 101.423C98.3056 101.479 97.9244 101.603 97.7116 101.637C96.7937 101.781 96.093 101.708 95.6096 101.418C95.0716 101.096 94.6413 100.369 94.3185 99.2399C93.8882 97.7338 93.7268 96.7925 93.8344 96.416C93.9419 95.9857 94.4261 95.636 95.2868 95.3671C95.7709 95.2057 96.2551 94.9099 96.7392 94.4796C97.2772 93.9955 97.6806 93.5383 97.9496 93.108C98.2636 92.6055 97.7639 92.124 97.2091 91.9158C96.8483 91.7803 96.3689 91.6129 95.7709 91.4136C94.8564 91.1447 94.1571 91.064 93.673 91.1716C93.2426 91.2792 92.3281 91.7902 90.9295 92.7046C89.0467 94.0493 87.3791 94.7216 85.9267 94.7216C84.5281 94.7216 83.7212 94.883 83.506 95.2057C83.0218 95.9588 82.6991 97.5455 82.5377 99.966C82.3763 102.387 82.4301 104.673 82.6991 106.824C83.0756 109.998 82.9949 111.826 82.457 112.311C81.2736 113.494 80.1439 112.687 79.068 109.89C78.6377 108.707 78.3956 107.496 78.3418 106.259C78.3418 105.022 78.5032 102.225 78.8259 97.8683C79.2563 91.5212 79.2832 85.1204 78.9066 78.6657C78.7509 75.5519 78.6453 73.1828 78.5897 71.5586C78.5294 69.7958 79.4312 69.1736 80.9239 70.1134C82.3763 70.974 83.237 71.9153 83.506 72.9373C83.775 73.9592 83.8288 75.9763 83.6674 78.9885C83.3984 81.6779 83.3715 83.8832 83.5867 85.6045C83.8019 87.2719 84.1515 88.1056 84.6357 88.1056C85.066 88.1056 86.0881 87.4871 87.7019 86.2499C89.3157 85.0128 91.2792 83.7219 93.5923 82.3772C94.9909 81.4627 95.9861 80.7097 96.5778 80.118C97.1696 79.4726 97.7613 78.4775 98.353 77.1328C99.4289 75.035 100.048 73.3138 100.209 71.9691C100.37 71.0547 100.397 70.463 100.29 70.194C100.182 69.9251 99.913 69.7906 99.4827 69.7906C98.891 69.8444 97.8689 70.3823 96.4165 71.4043C94.964 72.4263 93.942 73.3407 93.3502 74.1475C92.7047 75.1695 92.0323 75.546 91.333 75.2771C91.064 75.1695 90.9295 74.9274 90.9295 74.5509C90.9295 74.1206 91.9516 72.238 93.9957 68.9031C96.0399 65.5144 97.062 63.6318 97.062 63.2553C97.062 62.8788 96.0937 62.7712 94.1571 62.9326C92.9737 63.1477 92.113 63.2015 91.575 63.0939C91.0371 62.9864 90.4723 62.6905 89.8805 62.2064C89.0736 61.5072 88.8047 61.0769 89.0736 60.9155C89.3426 60.7003 90.4723 60.3507 92.4626 59.8666C93.9151 59.4901 96.6316 58.0378 100.612 55.5097C104.593 52.9279 107.229 51.5294 108.52 51.3142C109.865 51.0991 110.806 50.9377 111.344 50.8301ZM113.604 54.7029C112.689 53.5734 110.752 53.5196 107.794 54.5416C104.889 55.5635 102.253 57.2041 99.8861 59.4632C98.7565 60.4314 98.111 61.1038 97.9496 61.4803C97.7882 61.803 97.9227 62.1795 98.353 62.6098C98.9448 63.2553 99.2137 63.7932 99.1599 64.2235C99.1599 64.6 98.8103 65.4337 98.111 66.7247L97.7389 67.4421C97.4338 68.0305 97.9452 68.7103 98.5951 68.5804C100.37 68.2039 101.608 68.5266 102.307 69.5486C103.06 70.5706 103.141 72.1573 102.549 74.3089C102.172 75.6536 102.145 76.5411 102.468 76.9714C102.791 77.3479 103.786 77.6438 105.454 77.8589C106.852 78.1279 107.848 78.4775 108.439 78.9078C109.085 79.3381 109.273 79.9567 109.004 80.7635C108.735 81.5703 108.197 81.9737 107.39 81.9737C106.583 81.9737 105.346 82.3503 103.679 83.1033C102.065 83.8563 101.043 84.0446 100.612 83.6681C99.8695 83.0182 98.8051 83.6085 98.2045 84.3918C97.8964 84.7935 97.5425 85.3054 97.1427 85.9272C96.9631 86.2229 96.8054 86.4926 96.6694 86.7365C96.0699 87.8113 96.7141 88.5311 97.8689 88.1056C99.1599 87.6215 100.693 87.4602 102.468 87.6215C104.243 87.7291 105.534 88.1594 106.341 88.9125C106.557 89.0738 106.072 89.8 104.889 91.0909C103.652 92.4894 103.06 93.5114 103.114 94.1569C103.221 94.8023 104.055 95.3402 105.615 95.7705C107.283 96.3084 108.117 96.8194 108.117 97.3035C108.117 97.7876 106.422 99.724 103.033 103.113L100.04 106.058C99.3735 106.714 99.9283 107.84 100.854 107.712C104.781 107.066 108.439 107.012 111.828 107.55C113.538 107.843 115.257 107.08 116.186 105.614C117.369 103.839 118.149 102.171 118.526 100.611C118.956 98.9978 119.171 96.7387 119.171 93.8341C119.225 91.1447 118.902 86.3844 118.203 79.5532C117.557 72.6683 116.966 67.8811 116.428 65.1917C115.083 58.7909 114.141 55.2946 113.604 54.7029ZM89.7192 89.4772C91.9785 87.3795 92.5971 86.4113 91.575 86.5727C90.9833 86.734 89.8267 87.3257 88.1053 88.3477C86.7067 89.3159 86.0074 90.1227 86.0074 90.7682C86.0074 92.0053 86.7336 92.086 88.186 91.0102C88.6164 90.6337 89.1274 90.1227 89.7192 89.4772Z" fill="black"/>
<path d="M55.3135 43.406C56.6046 42.7067 57.6804 42.3302 58.5411 42.2764C59.4018 42.1689 60.3701 42.3302 61.446 42.7605C62.3605 43.1908 62.8177 43.8363 62.8177 44.6969C62.8177 45.5037 62.2529 47.225 61.1232 49.8606C60.0473 52.4963 58.9984 54.5671 57.9763 56.0732C57.7604 56.4124 57.5755 56.7162 57.4215 56.9847C56.9332 57.836 57.165 58.7674 58.1377 58.8971C58.837 58.9509 59.9667 59.3812 61.5267 60.188C62.8715 60.9411 63.7053 61.8286 64.0281 62.8506C64.4046 63.8725 64.2701 65.2442 63.6246 66.9654C63.0867 68.5791 62.8177 69.4935 62.8177 69.7086C62.8177 69.9238 63.9205 70.5961 66.126 71.7257C68.3316 72.8015 69.4343 73.5007 69.4343 73.8234C69.4343 74.0924 69.6495 74.2269 70.0799 74.2269C70.5102 74.2269 71.2364 74.8454 72.2585 76.0826C73.3344 77.2659 74.1682 78.4762 74.7599 79.7133C75.513 81.2194 75.8627 82.322 75.8089 83.0213C75.7551 83.7205 75.2709 84.5543 74.3565 85.5225C73.2268 86.652 72.4199 87.2706 71.9357 87.3782C71.5054 87.432 70.7792 87.0554 69.7571 86.2486C68.8964 85.6031 68.0895 85.2804 67.3364 85.2804C65.8302 85.2804 65.0771 84.3122 65.0771 82.3758C65.0771 81.3538 65.4267 80.7622 66.126 80.6008C67.4171 80.2781 67.6323 79.3099 66.7716 77.6962C66.126 76.5667 65.0502 75.5985 63.5439 74.7916C62.3605 74.1462 61.3115 74.0117 60.397 74.3882C59.5363 74.711 58.326 75.6254 56.7659 77.1314C55.0983 78.9603 53.6459 80.0091 52.4087 80.2781C51.2252 80.547 49.2886 80.305 46.5989 79.5519C45.2003 79.283 43.7748 78.4762 42.3223 77.1314C40.8699 75.7867 40.1437 74.6572 40.1437 73.7428C40.1437 72.8821 40.8161 72.156 42.161 71.5643C43.5596 70.9726 45.9265 70.4348 49.2617 69.9507C51.6824 69.5204 53.4038 69.0631 54.4259 68.5791C55.448 68.0412 56.228 67.2612 56.7659 66.2392C57.4653 65.0021 57.1425 64.4911 55.7977 64.7063C55.4211 64.8139 54.937 64.9483 54.3452 65.1097C52.839 65.6476 51.6824 65.8089 50.8755 65.5938C50.0686 65.3248 49.45 64.6256 49.0197 63.496C47.9976 60.5914 48.2934 58.413 49.9072 56.9607C50.7142 56.2077 51.4135 55.2933 52.0052 54.2175C52.5969 53.1417 52.7852 52.4156 52.57 52.0391C52.3549 51.6625 51.6017 51.4743 50.3107 51.4743C49.0197 51.4743 47.9169 50.9902 47.0024 50.022C46.1417 49.0538 45.7113 48.4352 45.7113 48.1663C45.7113 47.8435 46.2224 47.6822 47.2445 47.6822C48.2665 47.6822 49.5038 47.1981 50.9562 46.2299C52.4087 45.2079 53.8611 44.2666 55.3135 43.406Z" fill="#7088FF"/>
<path d="M68.4661 50.9902C69.6495 50.4523 71.5592 50.6674 74.1951 51.6356C76.8848 52.5501 79.0096 53.7603 80.5696 55.2664C81.6993 56.3959 82.3448 57.3103 82.5062 58.0096C82.6676 58.6551 82.4255 59.4081 81.78 60.2687C81.1345 61.0755 80.3544 61.3445 79.44 61.0755C78.5255 60.7528 77.1268 59.7577 75.244 58.0903C73.4151 56.4766 71.613 55.1319 69.8378 54.0561C68.3854 53.1955 67.5785 52.5769 67.4171 52.2004C67.2557 51.8239 67.6054 51.4205 68.4661 50.9902Z" fill="#7088FF"/>
<path fill-rule="evenodd" clip-rule="evenodd" d="M34.4954 25.1717C33.8153 24.8138 33.0032 25.3279 33.0359 26.0957L33.1236 28.1569C33.1774 30.6312 33.1774 33.5896 33.1236 37.032C33.023 40.1503 31.3458 43.0042 28.6704 44.6092L27.7174 45.181C24.2746 47.225 21.1277 48.8924 18.2766 50.1833L15.5045 51.4908C14.8075 51.8196 14.6929 52.7634 15.291 53.2493C17.0662 54.594 19.1642 55.2664 21.5849 55.2664C24.0594 55.2664 26.2649 54.5671 28.2015 53.1686C29.6002 52.0928 30.4877 51.555 30.8643 51.555C31.1871 51.555 31.3484 51.9046 31.3484 52.6038C31.3484 53.2493 30.9181 54.6747 30.0574 56.88C29.2505 59.0316 28.7126 60.1611 28.4436 60.2687C28.1746 60.3763 28.0401 60.6183 28.0401 60.9949C28.0401 61.5327 27.287 62.9581 25.7808 65.271C24.2746 67.584 23.1718 69.0631 22.4725 69.7086C21.3966 70.6768 20.8318 71.4298 20.778 71.9677C20.6704 72.7746 20.8049 74.0117 21.1814 75.6791C21.6118 77.3466 22.0421 78.5031 22.4725 79.1485C22.9494 79.7988 23.8814 79.9 24.4868 79.3673L25.3774 78.5837C27.0066 77.2053 28.8654 77.9399 29.336 80.0215C29.4151 80.3713 29.4942 80.7527 29.5733 81.1656C29.896 82.7792 30.2726 84.1509 30.7029 85.2804C31.5636 87.2706 32.4243 88.185 33.285 88.0236C34.5761 87.7547 35.0871 85.4149 34.8181 81.0042C34.603 78.4224 34.6837 75.1144 35.0602 71.0802C35.3292 68.0143 35.5981 66.051 35.8671 65.1904C36.1361 64.3298 36.8892 62.9312 38.1264 60.9949C39.4713 58.9509 40.6278 56.9607 41.5961 55.0243C42.5644 53.0879 42.9679 51.9046 42.8065 51.4743C42.6451 51.044 42.1072 51.4474 41.1927 52.6845C40.332 53.8679 39.4713 54.9167 38.6106 55.8312C37.8037 56.6918 37.1044 57.5524 36.5126 58.413C35.9056 59.3234 34.9782 59.1226 35.3195 58.083C35.475 57.6091 35.7114 57.0199 36.0285 56.3153C37.3733 53.4645 37.6423 51.3129 36.8354 49.8606C36.4588 49.2152 36.5395 48.6504 37.0775 48.1663C37.6692 47.6822 39.2292 46.8754 41.7575 45.7458C44.3396 44.5087 45.6307 43.5136 45.6307 42.7605C45.6307 41.3082 44.2051 40.34 41.3541 39.8559C39.3637 39.4794 38.1802 38.9953 37.8037 38.4037C37.4809 37.812 37.5616 36.4404 38.0458 34.2888C38.2071 33.6971 38.3954 33.2668 38.6106 32.9979C38.8258 32.729 38.6913 31.7877 38.2071 30.174C37.723 28.5603 37.2388 27.4846 36.7547 26.9467C36.3244 26.355 35.5712 25.7633 34.4954 25.1717ZM29.832 75.0885C29.8896 74.7525 30.1676 74.8322 30.1775 75.1729C30.1799 75.2539 30.1776 75.3365 30.1708 75.4207C30.1421 75.7716 29.9005 75.8225 29.8491 75.4741C29.8397 75.4101 29.8309 75.3402 29.8226 75.2645C29.8176 75.2185 29.8242 75.1341 29.832 75.0885Z" fill="black"/>
<path d="M57.4079 26.0655C57.3008 25.048 58.325 24.2889 59.2673 24.6876C60.7198 25.2792 61.8494 26.0861 62.6563 27.108C63.517 28.13 63.8398 29.0713 63.6246 29.9319C63.0867 32.1911 61.4191 33.3206 58.6218 33.3206C57.277 33.3206 56.497 33.1862 56.2818 32.9172C56.1204 32.6483 56.3894 32.0566 57.0887 31.1422C57.6266 30.3354 57.7611 28.91 57.4921 26.866L57.4079 26.0655Z" fill="#7088FF" fill-opacity="0.8034"/>
</svg>
