<svg width="37" height="50" viewBox="0 0 37 50" fill="none" xmlns="http://www.w3.org/2000/svg">
<path fill-rule="evenodd" clip-rule="evenodd" d="M26.64 0H0V50H37V13H26.64V0Z" fill="#E64340"/>
<path d="M26.5 0L37 13H26.5V0Z" fill="#B83533"/>
<path d="M14.2881 30.6504V39H11.4756V17.6719H19.3418C21.6758 17.6719 23.502 18.2676 24.8203 19.459C26.1484 20.6504 26.8125 22.2275 26.8125 24.1904C26.8125 26.2607 26.1631 27.8574 24.8643 28.9805C23.5752 30.0938 21.7246 30.6504 19.3125 30.6504H14.2881ZM14.2881 28.3506H19.3418C20.8457 28.3506 21.998 27.999 22.7988 27.2959C23.5996 26.583 24 25.5576 24 24.2197C24 22.9502 23.5996 21.9346 22.7988 21.1729C21.998 20.4111 20.8994 20.0156 19.5029 19.9863H14.2881V28.3506Z" fill="white"/>
</svg>
