<svg width="81" height="81" viewBox="0 0 81 81" fill="none" xmlns="http://www.w3.org/2000/svg">
<path d="M45.1333 11.3227L69.2444 28.6827C70.1 29.2987 70.7944 30.0975 71.2727 31.0158C71.751 31.9341 72 32.9466 72 33.9733V65.3867C72 67.1406 71.2742 68.8228 69.9823 70.063C68.6904 71.3032 66.9382 72 65.1111 72H16.8889C15.0618 72 13.3096 71.3032 12.0177 70.063C10.7258 68.8228 10 67.1406 10 65.3867V33.9733C10 32.9466 10.249 31.9341 10.7273 31.0158C11.2056 30.0975 11.9 29.2987 12.7556 28.6827L36.8667 11.3227C38.0591 10.4641 39.5094 10 41 10C42.4906 10 43.9409 10.4641 45.1333 11.3227V11.3227Z" fill="#3D5CFF"/>
</svg>
