<svg width="81" height="81" viewBox="0 0 81 81" fill="none" xmlns="http://www.w3.org/2000/svg">
<path d="M81 0V81H0V0H81Z" fill="white" fill-opacity="0.01"/>
<path d="M40.5 70.7062C39.6674 70.7069 38.8533 70.4602 38.1611 69.9974L29.3625 64.1249H16.875C14.1897 64.1249 11.6143 63.0582 9.71554 61.1594C7.81674 59.2606 6.75 56.6853 6.75 53.9999L6.75 20.2499C6.75 17.5646 7.81674 14.9893 9.71554 13.0905C11.6143 11.1917 14.1897 10.1249 16.875 10.1249H64.125C66.8103 10.1249 69.3857 11.1917 71.2845 13.0905C73.1833 14.9893 74.25 17.5646 74.25 20.2499V53.9999C74.25 56.6853 73.1833 59.2606 71.2845 61.1594C69.3857 63.0582 66.8103 64.1249 64.125 64.1249H51.6375L42.8321 69.9974C42.1416 70.4584 41.3302 70.705 40.5 70.7062V70.7062ZM52.3125 33.7499C51.3112 33.7499 50.3325 34.0468 49.4999 34.6031C48.6674 35.1594 48.0185 35.9501 47.6354 36.8751C47.2522 37.8002 47.1519 38.8181 47.3473 39.8001C47.5426 40.7821 48.0248 41.6842 48.7328 42.3922C49.4408 43.1002 50.3428 43.5823 51.3249 43.7777C52.3069 43.973 53.3248 43.8727 54.2498 43.4896C55.1749 43.1064 55.9655 42.4575 56.5218 41.625C57.0781 40.7925 57.375 39.8137 57.375 38.8124C57.375 37.4698 56.8416 36.1821 55.8922 35.2327C54.9428 34.2833 53.6552 33.7499 52.3125 33.7499ZM28.6875 33.7499C27.6862 33.7499 26.7074 34.0468 25.8749 34.6031C25.0424 35.1594 24.3935 35.9501 24.0104 36.8751C23.6272 37.8002 23.5269 38.8181 23.7223 39.8001C23.9176 40.7821 24.3998 41.6842 25.1078 42.3922C25.8158 43.1002 26.7178 43.5823 27.6999 43.7777C28.6819 43.973 29.6998 43.8727 30.6248 43.4896C31.5499 43.1064 32.3405 42.4575 32.8968 41.625C33.4531 40.7925 33.75 39.8137 33.75 38.8124C33.75 37.4698 33.2166 36.1821 32.2672 35.2327C31.3178 34.2833 30.0302 33.7499 28.6875 33.7499Z" fill="#F4F3FD"/>
</svg>
