<svg width="81" height="81" viewBox="0 0 81 81" fill="none" xmlns="http://www.w3.org/2000/svg">
<path d="M62.5 72H25.3C22.8335 72 20.468 71.0202 18.7239 69.2761C16.9798 67.532 16 65.1665 16 62.7V19.3C16 16.8335 16.9798 14.468 18.7239 12.7239C20.468 10.9798 22.8335 10 25.3 10H59.4C61.0443 10 62.6213 10.6532 63.7841 11.8159C64.9468 12.9787 65.6 14.5557 65.6 16.2V56.469C65.6018 56.9777 65.4817 57.4795 65.2497 57.9322L63.5602 61.3143C63.3465 61.7455 63.2354 62.2203 63.2354 62.7015C63.2354 63.1828 63.3465 63.6576 63.5602 64.0888L65.2466 67.4585C65.4812 67.9026 65.6025 68.3977 65.6 68.9C65.6 69.7222 65.2734 70.5107 64.692 71.092C64.1107 71.6734 63.3222 72 62.5 72ZM25.3 59.6C24.4778 59.6 23.6893 59.9266 23.108 60.508C22.5266 61.0893 22.2 61.8778 22.2 62.7C22.2 63.5222 22.5266 64.3107 23.108 64.892C23.6893 65.4734 24.4778 65.8 25.3 65.8H57.5617C56.8553 63.7937 56.8553 61.6063 57.5617 59.6H25.3ZM34.6 25.5C33.7778 25.5 32.9893 25.8266 32.408 26.408C31.8266 26.9893 31.5 27.7778 31.5 28.6C31.5 29.4222 31.8266 30.2107 32.408 30.792C32.9893 31.3734 33.7778 31.7 34.6 31.7H47C47.8222 31.7 48.6107 31.3734 49.192 30.792C49.7734 30.2107 50.1 29.4222 50.1 28.6C50.1 27.7778 49.7734 26.9893 49.192 26.408C48.6107 25.8266 47.8222 25.5 47 25.5H34.6Z" fill="#F4F3FD"/>
</svg>
