<svg width="81" height="81" viewBox="0 0 81 81" fill="none" xmlns="http://www.w3.org/2000/svg">
<path d="M64.125 74.25H16.875C15.0848 74.25 13.3679 73.5388 12.102 72.273C10.8362 71.0071 10.125 69.2902 10.125 67.5V64.125C10.1304 59.6511 11.91 55.362 15.0735 52.1985C18.237 49.035 22.5261 47.2554 27 47.25H54C58.4739 47.2554 62.763 49.035 65.9265 52.1985C69.09 55.362 70.8696 59.6511 70.875 64.125V67.5C70.875 69.2902 70.1638 71.0071 68.898 72.273C67.6321 73.5388 65.9152 74.25 64.125 74.25V74.25ZM40.5 40.5C37.1624 40.5 33.8998 39.5103 31.1248 37.6561C28.3497 35.8018 26.1868 33.1663 24.9095 30.0828C23.6323 26.9993 23.2981 23.6063 23.9492 20.3329C24.6004 17.0594 26.2076 14.0526 28.5676 11.6926C30.9276 9.33257 33.9344 7.72538 37.2078 7.07426C40.4813 6.42313 43.8743 6.75731 46.9578 8.03454C50.0413 9.31177 52.6768 11.4747 54.531 14.2498C56.3853 17.0248 57.375 20.2874 57.375 23.625C57.3696 28.0989 55.59 32.388 52.4265 35.5515C49.263 38.715 44.9739 40.4946 40.5 40.5Z" fill="#3D5CFF"/>
</svg>
